<svg xmlns="http://www.w3.org/2000/svg" xmlns:xlink="http://www.w3.org/1999/xlink" id="Layer_1" x="0px" y="0px" viewBox="0 0 250 114" style="enable-background:new 0 0 250 114;" xml:space="preserve"><style type="text/css">	.st0{fill:#01006B;}	.st1{fill:#005CD4;}	.st2{fill:#F2F4F4;}	.st3{fill:#FFFFFF;}</style><path class="st3" d="M192,47.5c0,0-39.6-37-126.5-31.8c0,0,16.8,8.2,28.5,29.1c0,0-30.2-7.7-38.9,8c0,0,11-9.5,40.5,0 S161,39.6,161,39.6s-2.6,6.7-7.9,10C153.1,49.5,175.7,44.7,192,47.5z"></path><path class="st3" d="M202.9,53.1c0,0-37.8-6.3-71.7,6.2s-55.7-3.9-55.7-3.9s8.9,11.5,32.4,12.6c8.6,0.4,17.1-0.8,25.3-3.3 C146.1,60.8,175.4,53,202.9,53.1z"></path><path class="st3" d="M188,38.6c0,0-27.8-20.1-73.6-24.3c0,0,5.2-7.6,16.9-6c0,0,15.3-19.8,46.6,13.3c0.9,1-6.6-5.5-11-7.6 c-4-1.9-8.8-4.1-15.2-3.8c-3.7,0.2-6.6,1.2-8.4,1.9c2,0,4.8,0.1,8.2,0.8c0,0,4.6,1,9.5,3.5C166.9,19.5,176.9,27.1,188,38.6z"></path><g>	<path class="st3" d="M23.4,105.4c-0.2,1.1-0.2,2.2-0.2,3.3c-2.8,1.4-5.4,2-7.8,2c-7.9,0-12.1-5.6-12.1-11.5  c0-5.7,3.9-11.6,11.8-11.6c3.2,0,6,0.9,8.1,1.5c-0.1,0.8-0.1,2-0.1,2.9c0,0.5,0,1,0,1.2H23c-0.3-3.3-3.6-5-7.8-5  c-4.9,0-9.1,3.4-9.1,11c0,7.5,5.2,10.6,9.8,10.6c3,0,6.4-1.4,7.3-4.6H23.4z"></path>	<path class="st3" d="M30.1,110.4c-0.7,0-1.2-0.1-2.3-0.1s-1.6,0-2.3,0.1v-0.2c0.9-0.2,1.3-0.3,1.3-2.8V89.2c0-1.1,0-1.4-1-1.7v-0.2  c0.9-0.1,2.1-0.3,2.9-0.7v20.7c0,2.5,0.4,2.6,1.3,2.8V110.4z"></path>	<path class="st3" d="M46.7,109.1c-0.5,0.7-1,1.6-2.2,1.6c-1.2,0-1.7-0.8-1.7-2.9c-1.1,1.7-2.8,2.9-5,2.9c-2.9,0-4.7-1.6-4.7-5.4V98  c0-1.1-0.2-1.5-1.5-1.7v-0.2c0.9-0.1,2.6-0.2,3.5-0.7v9.7c0,3.3,1.1,4.7,3.5,4.7c1.9,0,3.3-0.9,4.2-2.8V98c0-1.1-0.1-1.5-1.4-1.7  v-0.2c0.9-0.1,2.5-0.2,3.4-0.7v11.9c0,1,0,2,0.8,2c0.4,0,0.7-0.1,1.1-0.5L46.7,109.1z"></path>	<path class="st3" d="M48.6,109.4c0.7-0.4,0.7-0.9,0.7-4.3V89.2c0-1.1-0.1-1.5-1.4-1.7v-0.2c0.9-0.1,2.5-0.2,3.4-0.7v10.2  c1.2-1,2.6-1.5,4-1.5c4.6,0,6.8,3.4,6.8,7.1c0,4-2.6,8.1-7,8.1c-2.5,0-3.4-1.2-5.2-1.2C49.4,109.4,49.1,109.4,48.6,109.4  L48.6,109.4z M51.3,105.8c0,3,1.4,4.2,3.6,4.2c3.3,0,4.5-3.1,4.5-6.8c0-3.8-1.3-7-4.6-7c-1.1,0-2.2,0.2-3.5,1.4V105.8z"></path>	<path class="st3" d="M87.1,109.4c-0.5,0.7-1.2,1.3-2.4,1.3c-1.3,0-1.8-0.6-2-1.8c-1.3,1.5-3.1,1.8-4.3,1.8c-4.3,0-6.6-3.5-6.6-7.2  c0-4.6,3.4-8,7.4-8c1.1,0,2.3,0.3,3.4,1v-7.3c0-1.1-0.1-1.5-1.4-1.7v-0.2c0.9-0.1,2.5-0.2,3.4-0.7v19.5c0,3,0.2,3.5,1.1,3.5  c0.6,0,1.1-0.3,1.3-0.5L87.1,109.4z M82.6,98.2c-0.7-1.4-2.2-2.2-3.7-2.2c-2.3,0-4.5,2-4.5,7.1c0,3.7,1.8,6.5,5.1,6.5  c1,0,3-0.5,3-2.5V98.2z"></path>	<path class="st3" d="M100.5,108.2c-1.1,1.4-2.8,2.4-5.2,2.4c-5,0-7.4-3.8-7.4-7.6c0-4.3,2.8-7.6,6.6-7.6c3.1,0,5.7,2.2,5.7,5.5  h-9.7c0,0.3-0.1,0.7-0.1,1.1c0,4.9,2.6,7.6,6.1,7.6c1.3,0,2.5-0.3,3.8-1.5L100.5,108.2z M97.8,100.3c-0.1-2.8-1.3-4.5-3.2-4.5  c-1.9,0-3.4,1.8-3.9,4.5H97.8z"></path>	<path class="st3" d="M114.9,110.4c-0.7,0-1.2-0.1-2.3-0.1s-1.6,0-2.3,0.1v-0.2c0.9-0.2,1.3-0.3,1.3-2.8V89.2c0-1.1,0-1.4-1-1.7  v-0.2c0.9-0.1,2.1-0.3,2.9-0.7v20.7c0,2.5,0.4,2.6,1.3,2.8V110.4z"></path>	<path class="st3" d="M129.3,109.1c-0.5,0.7-1.1,1.6-2.2,1.6c-1.1,0-1.7-0.8-1.7-2c-1.2,1.2-2.9,2-4.6,2c-2.6,0-4-1.6-4-3.4  c0-2.2,1.9-3.9,5-3.9c1.3,0,2.7,0.4,3.6,1v-5.2c0-2-0.7-3.1-2.8-3.1c-1.7,0-3.5,1.2-3.6,3.9h-1.6c0.4-2.8,2.8-4.5,5.4-4.5  c2.2,0,4.6,0.7,4.6,4v8.2c0,1.3,0.2,1.7,0.9,1.7c0.3,0,0.6-0.1,1-0.5L129.3,109.1z M125.4,104.9c-0.7-0.6-1.8-1-3-1  c-2.2,0-3.4,1.6-3.4,3.2c0,1.4,0.9,2.7,2.8,2.7c1.4,0,2.6-0.7,3.5-1.7V104.9z"></path>	<path class="st3" d="M158.7,105.4c-0.2,1.1-0.2,2.2-0.2,3.3c-2.8,1.4-5.4,2-7.8,2c-7.9,0-12.1-5.6-12.1-11.5  c0-5.7,3.9-11.6,11.8-11.6c3.2,0,6,0.9,8.1,1.5c-0.1,0.8-0.1,2-0.1,2.9c0,0.5,0,1,0,1.2h-0.2c-0.3-3.3-3.6-5-7.8-5  c-4.9,0-9.1,3.4-9.1,11c0,7.5,5.2,10.6,9.8,10.6c3,0,6.4-1.4,7.3-4.6H158.7z"></path>	<path class="st3" d="M165.6,110.4c-0.7,0-1.2-0.1-2.3-0.1c-1.1,0-1.6,0-2.3,0.1v-0.2c0.9-0.2,1.3-0.3,1.3-2.8V98c0-1.1,0-1.4-1-1.7  v-0.2c0.9-0.1,2.1-0.3,2.9-0.7v1.4c0.7-0.6,1.7-1.4,3.1-1.4c1.6,0,2,1.1,2,2.6h-2c0-1.1-0.4-1.6-1.1-1.6c-0.5,0-1.1,0.2-2,1.2v9.8  c0,2.5,0.4,2.6,1.3,2.8V110.4z"></path>	<path class="st3" d="M170.7,103.1c0-4.5,3.2-7.6,7.5-7.6c4.3,0,7.4,3.3,7.4,7.6c0,4.1-2.8,7.4-7.4,7.4  C173.5,110.5,170.7,107.7,170.7,103.1z M183,102.9c0-3.8-1.1-7-5.1-7c-4.1,0-4.7,4.3-4.7,7.5c0,3.5,0.9,6.8,4.9,6.8  C182.3,110.1,183,106.4,183,102.9z"></path>	<path class="st3" d="M192.1,110.4c-0.7,0-1.2-0.1-2.3-0.1s-1.6,0-2.3,0.1v-0.2c0.9-0.2,1.3-0.3,1.3-2.8v-9.3c0-1.1,0-1.4-1-1.7  v-0.2c0.9-0.1,2.1-0.3,2.9-0.7v11.8c0,2.5,0.4,2.6,1.3,2.8V110.4z M189.9,93.2c-0.6,0-1.1-0.5-1.1-1.1c0-0.7,0.5-1.1,1.1-1.1  c0.7,0,1.1,0.5,1.1,1.1C191,92.7,190.6,93.2,189.9,93.2z"></path>	<path class="st3" d="M202.5,99c-0.3-1.6-1.4-3.2-3.5-3.2c-1.5,0-2.7,1-2.7,2.7c0,3.6,6.8,3,6.8,8.1c0,2.7-2.6,4-5,4  c-0.9,0-2.4-0.2-3.9-1c0.2-1,0.1-2.5,0.4-3.7h0.2c0,0.2,0,0.4,0,0.6c0,2,0.9,3.7,3.4,3.7c1.6,0,2.9-1,2.9-3c0-4-6.7-3.3-6.7-8  c0-2.6,2.6-3.8,4.9-3.8c1.2,0,2.7,0.3,3.5,0.5c-0.1,0.3-0.1,0.6-0.1,1c0,0.6,0,1.1,0.1,2H202.5z"></path>	<path class="st3" d="M209.9,110.4c-0.7,0-1.2-0.1-2.3-0.1s-1.6,0-2.3,0.1v-0.2c0.9-0.2,1.3-0.3,1.3-2.8v-9.3c0-1.1,0-1.4-1-1.7  v-0.2c0.9-0.1,2.1-0.3,2.9-0.7v11.8c0,2.5,0.4,2.6,1.3,2.8V110.4z M207.7,93.2c-0.6,0-1.1-0.5-1.1-1.1c0-0.7,0.5-1.1,1.1-1.1  c0.7,0,1.1,0.5,1.1,1.1C208.8,92.7,208.3,93.2,207.7,93.2z"></path>	<path class="st3" d="M224.2,108.2c-1.1,1.4-2.8,2.4-5.2,2.4c-5,0-7.4-3.8-7.4-7.6c0-4.3,2.8-7.6,6.6-7.6c3.1,0,5.7,2.2,5.7,5.5  h-9.7c0,0.3-0.1,0.7-0.1,1.1c0,4.9,2.6,7.6,6.1,7.6c1.3,0,2.5-0.3,3.8-1.5L224.2,108.2z M221.4,100.3c-0.1-2.8-1.3-4.5-3.2-4.5  c-1.9,0-3.4,1.8-3.9,4.5H221.4z M219.8,94.2l-5-3.8l1.2-1.2l4.2,4.7L219.8,94.2z"></path>	<path class="st3" d="M230.7,110.4c-0.7,0-1.2-0.1-2.3-0.1c-1.1,0-1.6,0-2.3,0.1v-0.2c0.9-0.2,1.3-0.3,1.3-2.8V98c0-1.1,0-1.4-1-1.7  v-0.2c0.9-0.1,2.1-0.3,2.9-0.7v1.4c0.7-0.6,1.7-1.4,3.1-1.4c1.6,0,2,1.1,2,2.6h-2c0-1.1-0.4-1.6-1.1-1.6c-0.5,0-1.1,0.2-2,1.2v9.8  c0,2.5,0.4,2.6,1.3,2.8V110.4z"></path>	<path class="st3" d="M248,108.2c-1.1,1.4-2.8,2.4-5.2,2.4c-5,0-7.4-3.8-7.4-7.6c0-4.3,2.8-7.6,6.6-7.6c3.1,0,5.7,2.2,5.7,5.5H238  c0,0.3-0.1,0.7-0.1,1.1c0,4.9,2.6,7.6,6.1,7.6c1.3,0,2.5-0.3,3.8-1.5L248,108.2z M245.2,100.3c-0.1-2.8-1.3-4.5-3.2-4.5  c-1.9,0-3.4,1.8-3.9,4.5H245.2z"></path></g></svg>